<?xml version="1.0" encoding="UTF-8" standalone="no"?>
<!DOCTYPE svg PUBLIC "-//W3C//DTD SVG 1.1//EN"
 "http://www.w3.org/Graphics/SVG/1.1/DTD/svg11.dtd">
<!-- Generated by graphviz version 2.36.0 (20140111.2315)
 -->
<!-- Title: G Pages: 1 -->
<svg width="265pt" height="65pt"
 viewBox="0.00 0.00 265.20 65.20" xmlns="http://www.w3.org/2000/svg" xmlns:xlink="http://www.w3.org/1999/xlink">
<g id="graph0" class="graph" transform="scale(1 1) rotate(0) translate(21.6 43.6)">
<title>G</title>
<polygon fill="#111111" stroke="none" points="-21.6,21.6 -21.6,-43.6 243.6,-43.6 243.6,21.6 -21.6,21.6"/>
<!-- retry.js -->
<g id="node1" class="node"><title>retry.js</title>
<path fill="none" stroke="#c6c5fe" d="M51.8333,-22.5C51.8333,-22.5 8.16667,-22.5 8.16667,-22.5 4.33333,-22.5 0.5,-18.6667 0.5,-14.8333 0.5,-14.8333 0.5,-7.16667 0.5,-7.16667 0.5,-3.33333 4.33333,0.5 8.16667,0.5 8.16667,0.5 51.8333,0.5 51.8333,0.5 55.6667,0.5 59.5,-3.33333 59.5,-7.16667 59.5,-7.16667 59.5,-14.8333 59.5,-14.8333 59.5,-18.6667 55.6667,-22.5 51.8333,-22.5"/>
<text text-anchor="middle" x="30" y="-7.3" font-family="Arial" font-size="14.00" fill="#c6c5fe">retry.js</text>
</g>
<!-- retry_operation.js -->
<g id="node2" class="node"><title>retry_operation.js</title>
<path fill="none" stroke="#cfffac" d="M213.833,-22.5C213.833,-22.5 104.167,-22.5 104.167,-22.5 100.333,-22.5 96.5,-18.6667 96.5,-14.8333 96.5,-14.8333 96.5,-7.16667 96.5,-7.16667 96.5,-3.33333 100.333,0.5 104.167,0.5 104.167,0.5 213.833,0.5 213.833,0.5 217.667,0.5 221.5,-3.33333 221.5,-7.16667 221.5,-7.16667 221.5,-14.8333 221.5,-14.8333 221.5,-18.6667 217.667,-22.5 213.833,-22.5"/>
<text text-anchor="middle" x="159" y="-7.3" font-family="Arial" font-size="14.00" fill="#cfffac">retry_operation.js</text>
</g>
<!-- retry.js&#45;&gt;retry_operation.js -->
<g id="edge1" class="edge"><title>retry.js&#45;&gt;retry_operation.js</title>
<path fill="none" stroke="#757575" d="M59.5013,-11C67.5573,-11 76.7062,-11 86.1049,-11"/>
<polygon fill="#757575" stroke="#757575" points="86.3616,-14.5001 96.3616,-11 86.3615,-7.5001 86.3616,-14.5001"/>
</g>
</g>
</svg>
