<?xml version="1.0" encoding="UTF-8" standalone="no"?>
<!DOCTYPE svg PUBLIC "-//W3C//DTD SVG 1.1//EN"
 "http://www.w3.org/Graphics/SVG/1.1/DTD/svg11.dtd">
<!-- Generated by graphviz version 2.40.1 (20161225.0304)
 -->
<!-- Title: %0 Pages: 1 -->
<svg width="72pt" height="54pt"
 viewBox="0.00 0.00 72.39 54.40" xmlns="http://www.w3.org/2000/svg" xmlns:xlink="http://www.w3.org/1999/xlink">
<g id="graph0" class="graph" transform="scale(1 1) rotate(0) translate(4 50.4)">
<title>%0</title>
<polygon fill="#ffffff" stroke="transparent" points="-4,4 -4,-50.4 68.3935,-50.4 68.3935,4 -4,4"/>
<text text-anchor="middle" x="32.1968" y="-28" font-family="Roboto Condensed, sans-serif" font-size="16.00" fill="#000000">retry</text>
<!-- retry@0.12.0 -->
<g id="node1" class="node">
<title>retry@0.12.0</title>
<path fill="none" stroke="#000000" d="M58.1241,-19.3011C58.1241,-19.3011 6.2694,-19.3011 6.2694,-19.3011 3.0357,-19.3011 -.198,-16.0674 -.198,-12.8337 -.198,-12.8337 -.198,-6.3663 -.198,-6.3663 -.198,-3.1326 3.0357,.1011 6.2694,.1011 6.2694,.1011 58.1241,.1011 58.1241,.1011 61.3578,.1011 64.5915,-3.1326 64.5915,-6.3663 64.5915,-6.3663 64.5915,-12.8337 64.5915,-12.8337 64.5915,-16.0674 61.3578,-19.3011 58.1241,-19.3011"/>
<text text-anchor="middle" x="32.1968" y="-6.3" font-family="Roboto Condensed, sans-serif" font-size="11.00" fill="#000000">retry@0.12.0</text>
</g>
</g>
</svg>
